<?xml version="1.0" encoding="UTF-8"?>
<svg width="18px" height="18px" viewBox="0 0 18 18" version="1.1" xmlns="http://www.w3.org/2000/svg" xmlns:xlink="http://www.w3.org/1999/xlink">
    <title>calib_sf_inactive</title>
    <g id="calib_sf_inactive" stroke="none" fill="none" fill-rule="evenodd" stroke-linecap="square" stroke-linejoin="round" stroke-width="1">
        <g id="编组" stroke="#999999">
            <path d="M7.5,15.5 L4.5,15.5 C3.94771525,15.5 3.5,15.0522847 3.5,14.5 L3.5,11.5" id="路径"></path>
            <path d="M15.5,11.5 L15.5,14.5 C15.5,15.0522847 15.0522847,15.5 14.5,15.5 L11.5,15.5" id="路径"></path>
            <path d="M11.5,3.5 L14.5,3.5 C15.0522847,3.5 15.5,3.94771525 15.5,4.5 L15.5,7.5" id="路径"></path>
            <path d="M3.5,7.5 L3.5,4.5 C3.5,3.94771525 3.94771525,3.5 4.5,3.5 L7.5,3.5" id="路径"></path>
            <line x1="9.5" y1="3.5" x2="9.5" y2="5.5" id="路径"></line>
            <line x1="9.5" y1="8.5" x2="9.5" y2="10.5" id="路径"></line>
            <line x1="9.5" y1="13.5" x2="9.5" y2="15.5" id="路径"></line>
            <line x1="15.5" y1="9.5" x2="13.5" y2="9.5" id="路径"></line>
            <line x1="5.5" y1="9.5" x2="3.5" y2="9.5" id="路径"></line>
            <line x1="10.5" y1="9.5" x2="8.5" y2="9.5" id="路径"></line>
        </g>
    </g>
</svg>