<svg viewBox="0 0 20 20" xmlns="http://www.w3.org/2000/svg" xmlns:xlink="http://www.w3.org/1999/xlink" width="20" height="20" fill="none" customFrame="#000000">
	<rect id="编组 15" width="20" height="20" x="0" y="0" />
	<g id="编组">
		<path id="减去顶层" d="M15.2 5.33732L19.4 5.33732C19.7312 5.33732 20 5.06415 20 4.7275C20 4.39091 19.7312 4.11768 19.4 4.11768L0.6 4.11768C0.2688 4.11768 0 4.39091 0 4.7275C0 5.06415 0.2688 5.33732 0.6 5.33732L4.8 5.33732L4.8 12.6554C4.8 13.1046 5.158 13.4685 5.6 13.4685L8.27718 13.4685L10.0016 15.8824L11.7256 13.4685L14.4 13.4685C14.842 13.4685 15.2 13.1046 15.2 12.6554L15.2 5.33732ZM12.1569 9.26473L11.8581 9.26473C11.8104 9.46573 11.7303 9.65374 11.6248 9.82444L11.8718 10.0714C11.9292 10.1289 11.9292 10.2219 11.8718 10.2793L11.4558 10.6953C11.3984 10.7528 11.3053 10.7528 11.2478 10.6953L11.0008 10.4483C10.8301 10.5536 10.6422 10.6337 10.4412 10.6813L10.4412 10.9804C10.4412 11.0887 10.3534 11.1765 10.2451 11.1765L9.75488 11.1765C9.64659 11.1765 9.55882 11.0887 9.55882 10.9804L9.55882 10.6816C9.35765 10.6341 9.16953 10.554 8.99865 10.4489L8.75218 10.6953C8.69471 10.7528 8.60165 10.7528 8.54424 10.6953L8.12824 10.2793C8.07077 10.2219 8.07077 10.1289 8.12824 10.0714L8.37429 9.82532C8.26865 9.65432 8.18824 9.46609 8.14059 9.26473L7.84312 9.26473C7.73482 9.26473 7.64706 9.17697 7.64706 9.06868L7.64706 8.57844C7.64706 8.47015 7.73482 8.38238 7.84312 8.38238L8.14059 8.38238C8.18824 8.18103 8.26865 7.99279 8.37429 7.82179L8.12824 7.57574C8.07077 7.51826 8.07077 7.42521 8.12824 7.36779L8.54424 6.95179C8.60165 6.89432 8.69471 6.89432 8.75218 6.95179L8.99871 7.19838C9.16953 7.09309 9.35765 7.01297 9.55882 6.9655L9.55882 6.66668C9.55882 6.55838 9.64659 6.47062 9.75488 6.47062L10.2451 6.47062C10.3534 6.47062 10.4412 6.55838 10.4412 6.66668L10.4412 6.96579C10.6422 7.01344 10.8301 7.09356 11.0008 7.19885L11.2478 6.95179C11.3053 6.89432 11.3984 6.89432 11.4558 6.95179L11.8718 7.36779C11.9292 7.42521 11.9292 7.51826 11.8718 7.57574L11.6248 7.82268C11.7303 7.99338 11.8104 8.18138 11.8581 8.38238L12.1569 8.38238C12.2652 8.38238 12.3529 8.47015 12.3529 8.57844L12.3529 9.06868C12.3529 9.17697 12.2652 9.26473 12.1569 9.26473ZM9.11765 8.82356C9.11765 9.31085 9.51271 9.70591 9.99988 9.70591C10.4873 9.70591 10.8824 9.31085 10.8824 8.82356C10.8824 8.33626 10.4873 7.94121 9.99988 7.94121C9.51271 7.94121 9.11765 8.33626 9.11765 8.82356Z" fill="rgb(149,197,255)" fill-rule="evenodd" />
		<path id="路径" d="M10.0422 4.70588C10.0422 4.70588 9.06896 -1.76471 16.4706 -1.76471" opacity="0" stroke="rgb(149,197,255)" stroke-linecap="round" stroke-width="1.5" />
	</g>
</svg>
