<svg width="18.000000" height="18.000000" viewBox="0 0 18 18" fill="none" xmlns="http://www.w3.org/2000/svg" xmlns:xlink="http://www.w3.org/1999/xlink">
	<desc>
			Created with Pixso.
	</desc>
	<defs/>
	<rect id="矩形 15" width="18.000000" height="18.000000" fill="#C4C4C4" fill-opacity="0"/>
	<path id="path" d="M9 17C6.86 17 4.85 16.16 3.34 14.64C0.21 11.52 0.21 6.45 3.34 3.33C4.85 1.83 6.86 1 9 1C11.13 1 13.14 1.83 14.66 3.33C17.77 6.45 17.77 11.52 14.66 14.64C13.14 16.16 11.13 17 9 17ZM9 1.68C7.04 1.68 5.21 2.45 3.83 3.83C0.98 6.68 0.98 11.31 3.83 14.16C5.21 15.54 7.05 16.29 9 16.29C10.95 16.29 12.78 15.54 14.16 14.16C17.01 11.31 17.01 6.68 14.16 3.83C12.78 2.45 10.95 1.68 9 1.68Z" fill="#FFFFFF" fill-opacity="1.000000" fill-rule="nonzero"/>
	<path id="path" d="M9 17C6.86 17 4.85 16.16 3.34 14.64C0.21 11.52 0.21 6.45 3.34 3.33C4.85 1.83 6.86 1 9 1C11.13 1 13.14 1.83 14.66 3.33C17.77 6.45 17.77 11.52 14.66 14.64C13.14 16.16 11.13 17 9 17ZM9 1.68C7.04 1.68 5.21 2.45 3.83 3.83C0.98 6.68 0.98 11.31 3.83 14.16C5.21 15.54 7.05 16.29 9 16.29C10.95 16.29 12.78 15.54 14.16 14.16C17.01 11.31 17.01 6.68 14.16 3.83C12.78 2.45 10.95 1.68 9 1.68Z" fill="#FFFFFF" fill-opacity="1.000000" fill-rule="evenodd"/>
	<path id="path" d="M5.06 13.28C4.97 13.28 4.88 13.24 4.81 13.16C4.71 13.06 4.68 12.91 4.74 12.79L7.2 7.37C7.24 7.29 7.3 7.24 7.38 7.2L12.79 4.75C12.92 4.68 13.08 4.7 13.18 4.81C13.28 4.91 13.31 5.06 13.25 5.2L10.79 10.62C10.75 10.68 10.69 10.75 10.62 10.79L5.2 13.25C5.16 13.27 5.11 13.28 5.06 13.28ZM7.78 7.78L5.76 12.23L10.21 10.21L12.23 5.76L7.78 7.78Z" fill="#FFFFFF" fill-opacity="1.000000" fill-rule="nonzero"/>
	<path id="path" d="M5.06 13.28C4.97 13.28 4.88 13.24 4.81 13.16C4.71 13.06 4.68 12.91 4.74 12.79L4.97 12.28L5.38 11.39L5.43 11.28L7.2 7.37C7.24 7.29 7.3 7.24 7.38 7.2L11.29 5.43L11.39 5.37L12.25 4.99L12.79 4.75C12.92 4.68 13.08 4.7 13.18 4.81C13.28 4.91 13.31 5.06 13.25 5.2L13.02 5.7L12.61 6.6L12.57 6.7L10.79 10.62C10.75 10.68 10.69 10.75 10.62 10.79L6.71 12.56L6.6 12.6L5.74 13L5.2 13.25C5.16 13.27 5.11 13.28 5.06 13.28ZM6.18 12.04L7.14 11.6L10.21 10.21L11.6 7.14L12.04 6.18L12.23 5.76L11.81 5.95L10.85 6.39L7.78 7.78L6.39 10.85L5.95 11.81L5.76 12.23L6.18 12.04Z" fill="#FFFFFF" fill-opacity="1.000000" fill-rule="evenodd"/>
	<path id="path" d="M10.47 10.81C10.38 10.81 10.29 10.79 10.23 10.72L7.27 7.77C7.14 7.62 7.14 7.41 7.27 7.28C7.41 7.14 7.63 7.14 7.76 7.28L10.72 10.22C10.85 10.37 10.85 10.58 10.72 10.72C10.65 10.79 10.56 10.81 10.47 10.81ZM8.95 3.43C8.76 3.43 8.53 3.28 8.53 3.08L8.53 2.39C8.53 2.2 8.76 2.04 8.95 2.04C9.15 2.04 9.37 2.2 9.37 2.39L9.37 3.08C9.37 3.28 9.15 3.43 8.95 3.43ZM8.95 15.95C8.76 15.95 8.53 15.79 8.53 15.6L8.53 14.91C8.53 14.72 8.76 14.56 8.95 14.56C9.15 14.56 9.37 14.72 9.37 14.91L9.37 15.6C9.37 15.79 9.15 15.95 8.95 15.95ZM15.61 9.18L14.91 9.18C14.72 9.18 14.56 9.06 14.56 8.87C14.56 8.68 14.72 8.56 14.91 8.56L15.61 8.56C15.8 8.56 15.96 8.68 15.96 8.87C15.96 9.06 15.8 9.18 15.61 9.18ZM3.08 9.18L2.38 9.18C2.19 9.18 2.04 9.06 2.04 8.87C2.04 8.68 2.19 8.56 2.38 8.56L3.08 8.56C3.27 8.56 3.43 8.68 3.43 8.87C3.43 9.06 3.27 9.18 3.08 9.18Z" fill="#FFFFFF" fill-opacity="1.000000" fill-rule="nonzero"/>
	<path id="path" d="M8.95 3.43C8.76 3.43 8.53 3.28 8.53 3.08L8.53 2.85C8.56 2.87 8.68 2.97 8.71 2.99C8.79 3.03 8.87 3.04 8.95 3.04C9.04 3.04 9.12 3.03 9.2 2.99C9.23 2.97 9.35 2.87 9.37 2.85L9.37 3.08C9.37 3.28 9.15 3.43 8.95 3.43ZM9.37 2.62C9.34 2.6 9.23 2.5 9.2 2.47C9.12 2.45 9.04 2.43 8.95 2.43C8.87 2.43 8.79 2.45 8.71 2.47C8.68 2.51 8.56 2.58 8.53 2.62L8.53 2.39C8.53 2.2 8.76 2.04 8.95 2.04C9.15 2.04 9.37 2.2 9.37 2.39L9.37 2.62ZM8.16 7.66L7.76 7.28C7.63 7.14 7.41 7.14 7.27 7.28C7.14 7.41 7.14 7.62 7.27 7.77L7.67 8.16L9.83 10.33L10.23 10.72C10.29 10.79 10.38 10.81 10.47 10.81C10.56 10.81 10.65 10.79 10.72 10.72C10.85 10.58 10.85 10.37 10.72 10.22L10.33 9.83L8.16 7.66ZM2.5 8.56L2.38 8.56C2.19 8.56 2.04 8.68 2.04 8.87C2.04 9.06 2.19 9.18 2.38 9.18L2.5 9.18C2.47 9.12 2.44 9.03 2.43 8.97C2.43 8.93 2.43 8.81 2.43 8.78C2.44 8.72 2.47 8.62 2.5 8.56ZM2.96 8.56C2.99 8.62 3.02 8.7 3.03 8.78C3.03 8.81 3.03 8.93 3.03 8.97C3.02 9.03 3 9.1 2.97 9.16L3.08 9.18C3.27 9.18 3.43 9.06 3.43 8.87C3.43 8.68 3.27 8.56 3.08 8.56L2.96 8.56ZM15.03 8.56L14.91 8.56C14.72 8.56 14.56 8.68 14.56 8.87C14.56 9.06 14.72 9.18 14.91 9.18L15.03 9.18C15 9.12 14.97 9.03 14.96 8.97C14.96 8.93 14.96 8.81 14.96 8.78C14.97 8.7 15 8.62 15.03 8.56ZM15.49 8.56C15.52 8.62 15.55 8.7 15.56 8.78C15.56 8.81 15.56 8.93 15.56 8.97C15.55 9.03 15.53 9.1 15.5 9.16L15.61 9.18C15.8 9.18 15.96 9.06 15.96 8.87C15.96 8.68 15.8 8.56 15.61 8.56L15.49 8.56ZM8.95 15.95C8.76 15.95 8.53 15.79 8.53 15.6L8.53 15.37C8.56 15.39 8.68 15.5 8.71 15.51C8.79 15.54 8.87 15.56 8.95 15.56C9.04 15.56 9.12 15.54 9.2 15.51C9.23 15.49 9.35 15.39 9.37 15.37L9.37 15.6C9.37 15.79 9.15 15.95 8.95 15.95ZM9.37 15.14C9.34 15.12 9.23 15.02 9.2 15.01C9.12 14.97 9.04 14.95 8.95 14.95C8.87 14.95 8.79 14.97 8.71 15.01C8.68 15.03 8.56 15.12 8.53 15.14L8.53 14.91C8.53 14.72 8.76 14.56 8.95 14.56C9.15 14.56 9.37 14.72 9.37 14.91L9.37 15.14Z" fill="#FFFFFF" fill-opacity="1.000000" fill-rule="evenodd"/>
</svg>
