<?xml version="1.0" encoding="UTF-8"?>
<svg width="20px" height="20px" viewBox="0 0 20 20" version="1.1" xmlns="http://www.w3.org/2000/svg" xmlns:xlink="http://www.w3.org/1999/xlink">
    <title>close-outlined</title>
    <g id="切片软件增加互联生态相关内容" stroke="none" stroke-width="1" fill="none" fill-rule="evenodd">
        <g id="5.模型详情" transform="translate(-298, -97)" fill="#000000">
            <g id="close-outlined" transform="translate(298, 97)">
                <rect id="矩形" opacity="0" x="0" y="0" width="20" height="20"></rect>
                <path d="M15.8288227,3 C15.8292884,3.00024927 15.8296934,3.00047201 15.8305236,3.00130223 L16.9986978,4.16947641 C16.999528,4.17030663 16.9997507,4.17069136 17,4.17117734 C17,4.17163267 17,4.1721192 17,4.17257453 C16.9997507,4.17304026 16.999528,4.173425 16.9986978,4.17425521 L11.172953,10 L16.9986978,15.8257448 C16.999528,15.8265548 16.9997507,15.8269597 17,15.8274255 C17,15.8278871 17,15.8283813 17,15.8288429 C16.9997507,15.8292884 16.999528,15.8296934 16.9986978,15.8305236 L15.8305236,16.9986978 C15.8296934,16.999528 15.8293086,16.9997507 15.8288227,17 C15.8283673,17 15.8278808,17 15.8274255,17 C15.8269597,16.9997507 15.826575,16.999528 15.8257448,16.9986978 L10,11.172953 L4.17425521,16.9986978 C4.17344525,16.999528 4.17304026,16.9997507 4.17257453,17 C4.17211293,17 4.17161869,17 4.17115709,17 C4.17071161,16.9997507 4.17030663,16.999528 4.16947641,16.9986978 L3.00130223,15.8305236 C3.00047201,15.8296934 3.00024927,15.8293086 3,15.8288227 C3,15.8283673 3,15.8278808 3,15.8274255 C3.00024927,15.8269597 3.00047201,15.826575 3.00130223,15.8257448 L8.82702677,10 L3.00130223,4.17425521 C3.00047201,4.17344525 3.00024927,4.17304026 3,4.17257453 C3,4.17211293 3,4.17161869 3,4.17115709 C3.00024927,4.17071161 3.00047201,4.17030663 3.00130223,4.16947641 L4.16947641,3.00130223 C4.17030663,3.00047201 4.17069136,3.00024927 4.17117734,3 C4.17163267,3 4.1721192,3 4.17257453,3 C4.17304026,3.00024927 4.173425,3.00047201 4.17425521,3.00130223 L10,8.82702677 L15.8257448,3.00130223 C15.8265548,3.00047201 15.8269597,3.00024927 15.8274255,3 C15.8278871,3 15.8283813,3 15.8288429,3 L15.8288227,3 Z" id="路径"></path>
            </g>
        </g>
    </g>
</svg>