<?xml version="1.0" encoding="UTF-8"?>
<svg width="32px" height="32px" viewBox="0 0 32 32" version="1.1" xmlns="http://www.w3.org/2000/svg" xmlns:xlink="http://www.w3.org/1999/xlink">
    <title>dash-outlined</title>
    <defs>
        <path d="M0,0 L2161,0 L2161,1927 L0,1927 L0,0 Z" id="path-1"></path>
    </defs>
    <g id="切片软件增加互联生态相关内容" stroke="none" stroke-width="1" fill="none" fill-rule="evenodd">
        <g id="切片软件相关图标及素材" transform="translate(-175, -888)" xlink:href="#path-1">
            <g id="dash-outlined" transform="translate(175, 888)">
                <rect id="矩形" fill="#000000" opacity="0" x="0" y="0" width="32" height="32"></rect>
                <path d="M6.5,14 C7.88071187,14 9,15.1192881 9,16.5 C9,17.8807119 7.88071187,19 6.5,19 C5.11928813,19 4,17.8807119 4,16.5 C4,15.1192881 5.11928813,14 6.5,14 Z M16.5,14 C17.8807119,14 19,15.1192881 19,16.5 C19,17.8807119 17.8807119,19 16.5,19 C15.1192881,19 14,17.8807119 14,16.5 C14,15.1192881 15.1192881,14 16.5,14 Z M26.5,14 C27.8807119,14 29,15.1192881 29,16.5 C29,17.8807119 27.8807119,19 26.5,19 C25.1192881,19 24,17.8807119 24,16.5 C24,15.1192881 25.1192881,14 26.5,14 Z" id="形状" fill="#333333"></path>
            </g>
        </g>
    </g>
</svg>