<?xml version="1.0" encoding="UTF-8"?>
<svg width="32px" height="32px" viewBox="0 0 32 32" version="1.1" xmlns="http://www.w3.org/2000/svg" xmlns:xlink="http://www.w3.org/1999/xlink">
    <title>编组</title>
    <g id="切片软件增加互联生态相关内容" stroke="none" stroke-width="1" fill="none" fill-rule="evenodd">
        <g id="5.模型详情" transform="translate(-466, -91)">
            <g id="编组" transform="translate(466, 91)">
                <rect id="矩形-7" fill="#F5F5F5" x="0" y="0" width="32" height="32" rx="16"></rect>
                <g id="arrowleft-outlined" transform="translate(6, 6)" fill="#000000">
                    <rect id="矩形" opacity="0" x="0" y="0" width="20" height="20"></rect>
                    <path d="M16.8478313,9.25280899 L5.71858972,9.25280899 L12.3797765,3.2752809 C12.4862946,3.17893258 12.4216229,3 12.2808668,3 L10.5975001,3 C10.5233178,3 10.4529398,3.02752809 10.3977786,3.07668539 L3.20970755,9.5241573 C2.93009748,9.7758427 2.93009748,10.2241573 3.20970755,10.4738764 L10.439625,16.9606742 C10.4681567,16.986236 10.5023946,17 10.5385347,17 L12.2789647,17 C12.4197208,17 12.4843925,16.8191011 12.3778744,16.7247191 L5.71858972,10.747191 L16.8478313,10.747191 C16.9315241,10.747191 17,10.6764045 17,10.5898876 L17,9.41011236 C17,9.32359551 16.9315241,9.25280899 16.8478313,9.25280899 Z" id="路径"></path>
                </g>
            </g>
        </g>
    </g>
</svg>