<?xml version="1.0" encoding="UTF-8"?>
<svg width="24px" height="24px" viewBox="0 0 24 24" version="1.1" xmlns="http://www.w3.org/2000/svg" xmlns:xlink="http://www.w3.org/1999/xlink">
    <title>error-outlined</title>
    <g id="切片软件增加互联生态相关内容" stroke="none" stroke-width="1" fill="none" fill-rule="evenodd">
        <g id="5.-模型详情_更多操作菜单" transform="translate(-125, -150)">
            <g id="编组" transform="translate(76, 149)">
                <g transform="translate(49, 1)" id="error-outlined">
                    <rect id="矩形" fill="#000000" opacity="0" x="0" y="0" width="24" height="24"></rect>
                    <path d="M11.3750636,16.7755102 C11.3750636,17.3841505 11.8787148,17.877551 12.5,17.877551 C13.1212852,17.877551 13.6249364,17.3841505 13.6249364,16.7755102 C13.6249364,16.1668699 13.1212852,15.6734694 12.5,15.6734694 C11.8787148,15.6734694 11.3750636,16.1668699 11.3750636,16.7755102 Z M11.7500424,9.79591837 L11.7500424,14.0204082 C11.7500424,14.1214286 11.8344126,14.2040816 11.9375318,14.2040816 L13.0624682,14.2040816 C13.1655874,14.2040816 13.2499576,14.1214286 13.2499576,14.0204082 L13.2499576,9.79591837 C13.2499576,9.69489796 13.1655874,9.6122449 13.0624682,9.6122449 L11.9375318,9.6122449 C11.8344126,9.6122449 11.7500424,9.69489796 11.7500424,9.79591837 Z M22.8986306,19.8979592 L13.149182,3.36734694 C13.0038777,3.12168367 12.7531107,3 12.5,3 C12.2468893,3 11.9937786,3.12168367 11.850818,3.36734694 L2.10136943,19.8979592 C1.81310448,20.3892857 2.17402157,21 2.75055146,21 L22.2494485,21 C22.8259784,21 23.1868955,20.3892857 22.8986306,19.8979592 Z M4.53638795,19.257398 L12.5,5.75280612 L20.4636121,19.257398 L4.53638795,19.257398 Z" id="形状" fill="#333333"></path>
                </g>
            </g>
        </g>
    </g>
</svg>