<svg xmlns="http://www.w3.org/2000/svg" xmlns:xlink="http://www.w3.org/1999/xlink" width="256" height="256" viewBox="0 0 256 256" fill="none"><path d="M256 162.75C256 166.311 256.001 169.871 255.979 173.432C255.962 176.431 255.927 179.429 255.846 182.427C255.669 188.961 255.284 195.551 254.123 202.012C252.945 208.566 251.022 214.666 247.991 220.621C245.012 226.474 241.119 231.83 236.475 236.474C231.83 241.119 226.474 245.012 220.621 247.991C214.666 251.022 208.566 252.945 202.012 254.123C195.551 255.284 188.961 255.669 182.427 255.846C179.429 255.927 176.431 255.962 173.432 255.979C169.871 256.001 166.311 256 162.75 256L93.25 256C89.6893 256 86.1293 256.001 82.5685 255.979C79.5695 255.962 76.571 255.927 73.5728 255.846C67.0395 255.669 60.4493 255.284 53.9885 254.123C47.434 252.945 41.334 251.022 35.379 247.991C29.526 245.012 24.1698 241.119 19.5258 236.474C14.8815 231.83 10.9888 226.474 8.00927 220.621C4.97827 214.666 3.05527 208.566 1.87727 202.012C0.715771 195.551 0.331271 188.961 0.154271 182.427C0.0727708 179.429 0.0382708 176.431 0.0210208 173.432C-0.00147924 169.871 2.07612e-05 166.311 2.07612e-05 162.75L2.07612e-05 93.25C2.07612e-05 89.6893 -0.00147924 86.1293 0.0210208 82.5685C0.0382708 79.5695 0.0727708 76.571 0.154271 73.5728C0.331271 67.0395 0.715771 60.4493 1.87727 53.9885C3.05527 47.434 4.97827 41.334 8.00927 35.379C10.9888 29.526 14.8815 24.1698 19.5258 19.5258C24.1698 14.8815 29.526 10.9885 35.379 8.00927C41.334 4.97827 47.434 3.05527 53.9885 1.87727C60.4493 0.715771 67.0395 0.331271 73.5728 0.154021C76.571 0.0727708 79.5695 0.0382708 82.5685 0.0210208C86.1293 -0.00147924 89.6893 2.07612e-05 93.25 2.07612e-05L162.75 2.07612e-05C166.311 2.07612e-05 169.871 -0.00147924 173.432 0.0210208C176.431 0.0382708 179.429 0.0727708 182.427 0.154021C188.961 0.331271 195.551 0.715771 202.012 1.87727C208.566 3.05527 214.666 4.97827 220.621 8.00927C226.474 10.9885 231.83 14.8815 236.475 19.5258C241.119 24.1698 245.012 29.526 247.991 35.379C251.022 41.334 252.945 47.434 254.123 53.9885C255.284 60.4493 255.669 67.0395 255.846 73.5728C255.927 76.571 255.962 79.5695 255.979 82.5685C256.001 86.1293 256 89.6893 256 93.25L256 162.75Z"   fill="#FFFFFF" ></path><path d="M128 32L32 128L128 224L224 128L128 32Z"   fill="#000000" ></path><path d="M128 176L128 218L218 128L128 38L128 80L104 104L104 152L152 104L152 152L128 176Z"   fill="#00AFE9" ></path></svg>