<svg width="26.000000" height="11.500000" viewBox="0 0 26 11.5" fill="none" xmlns="http://www.w3.org/2000/svg" xmlns:xlink="http://www.w3.org/1999/xlink">
	<desc>
			Created with Pixso.
	</desc>
	<defs/>
	<path id="路径 8" d="M6.4 0.5L4.19 0.5L1 8L24.99 8L21.79 0.5L19.54 0.5L6.4 0.5Z" fill="#95C5FF" fill-opacity="1.000000" fill-rule="evenodd"/>
	<path id="路径 8" d="M4.19 0.5L1 8L24.99 8L21.79 0.5L19.54 0.5L6.4 0.5L4.19 0.5Z" stroke="#95C5FF" stroke-opacity="1.000000" stroke-width="1.000000" stroke-linejoin="round"/>
	<path id="路径 9" d="M1.02 11.48L1 11.5C0.43 11.5 0 11.06 0 10.5C0 9.93 0.43 9.5 1 9.5L1.02 9.51L1.02 11.48ZM24.98 9.51L25 9.5C25.56 9.5 26 9.93 26 10.5C26 11.06 25.56 11.5 25 11.5L24.98 11.48L24.98 9.51Z" fill="#95C5FF" fill-opacity="1.000000" fill-rule="nonzero"/>
	<path id="路径 9" d="M1 10.5L25 10.5" stroke="#95C5FF" stroke-opacity="1.000000" stroke-width="2.000000" stroke-linejoin="round" stroke-linecap="round"/>
</svg>
