<svg width="127.999237" height="128.000000" viewBox="0 0 127.999 128" fill="none" xmlns="http://www.w3.org/2000/svg" xmlns:xlink="http://www.w3.org/1999/xlink">
	<desc>
			Created with Pixso.
	</desc>
	<defs/>
	<mask id="mask_1076_20674" fill="white">
		<path id="合并" d="M80.3486 2.16602C90.7247 4.93164 100.531 10.3789 108.661 18.5098L63.9987 63.1699L19.3361 18.5078C26.9232 10.9062 36.5444 5.13867 47.6546 2.16406C58.0234 -0.628906 69.2399 -0.8125 80.3486 2.16602ZM109.489 19.3379C117.62 27.4688 123.068 37.2734 125.833 47.6504C128.813 58.7578 128.628 69.9746 125.835 80.3418C122.861 91.4512 117.092 101.072 109.489 108.66L64.8262 63.998L109.489 19.3379ZM2.16583 47.6543C4.93152 37.2773 10.3797 27.4727 18.5103 19.3418L63.173 64.002L18.5103 108.664C10.907 101.076 5.13867 91.4551 2.16431 80.3457C-0.62854 69.9785 -0.813354 58.7617 2.16583 47.6543ZM108.661 109.49C100.531 117.621 90.7244 123.068 80.3483 125.834C69.2395 128.812 58.0231 128.629 47.6543 125.836C36.5442 122.861 26.9229 117.094 19.3358 109.492L63.9984 64.8301L108.661 109.49Z" clip-rule="evenodd" fill="" fill-opacity="1.000000" fill-rule="evenodd"/>
	</mask>
	<path id="合并" d="M80.3486 2.16602C90.7247 4.93164 100.531 10.3789 108.661 18.5098L63.9987 63.1699L19.3361 18.5078C26.9232 10.9062 36.5444 5.13867 47.6546 2.16406C58.0234 -0.628906 69.2399 -0.8125 80.3486 2.16602ZM109.489 19.3379C117.62 27.4688 123.068 37.2734 125.833 47.6504C128.813 58.7578 128.628 69.9746 125.835 80.3418C122.861 91.4512 117.092 101.072 109.489 108.66L64.8262 63.998L109.489 19.3379ZM2.16583 47.6543C4.93152 37.2773 10.3797 27.4727 18.5103 19.3418L63.173 64.002L18.5103 108.664C10.907 101.076 5.13867 91.4551 2.16431 80.3457C-0.62854 69.9785 -0.813354 58.7617 2.16583 47.6543ZM108.661 109.49C100.531 117.621 90.7244 123.068 80.3483 125.834C69.2395 128.812 58.0231 128.629 47.6543 125.836C36.5442 122.861 26.9229 117.094 19.3358 109.492L63.9984 64.8301L108.661 109.49Z" clip-rule="evenodd" fill="#FFFFFF" fill-opacity="1.000000" fill-rule="evenodd" mask="url(#mask_1076_20674)"/>
	<path id="合并" d="M107.949 17.8082C99.9608 10.0648 90.4234 4.85133 80.3486 2.16602C69.2399 -0.8125 58.0234 -0.628906 47.6546 2.16406C36.8891 5.04639 27.5216 10.5511 20.0481 17.8057C19.8391 18.0086 19.6316 18.2128 19.4255 18.4184C19.3957 18.4482 19.3659 18.478 19.3361 18.5078L63.2917 62.4629L63.9987 63.1699L64.7058 62.4629L107.954 19.2168L108.661 18.5098L108.656 18.5046C108.422 18.2703 108.186 18.0381 107.949 17.8082ZM107.242 18.5151Q101.432 12.8769 94.6126 9.02304Q87.8481 5.19994 80.0911 3.13281L80.0896 3.13281Q71.7642 0.899302 63.4588 0.971499Q55.6772 1.03914 47.9132 3.13086Q39.6078 5.35406 32.4646 9.55396Q26.1568 13.2627 20.7553 18.5128L63.9987 61.7558L107.242 18.5151ZM109.489 19.3379L108.782 20.0449L65.5333 63.291L64.8262 63.998L65.5333 64.7051L109.489 108.66L109.576 108.573C109.782 108.366 109.987 108.158 110.191 107.948C117.447 100.474 122.953 91.1066 125.835 80.3418C128.628 69.9746 128.813 58.7578 125.833 47.6504C123.148 37.5748 117.934 28.0387 110.191 20.0505C109.959 19.8115 109.725 19.574 109.489 19.3379ZM109.484 20.7573L66.2404 63.998L109.484 107.241Q114.73 101.845 118.437 95.5444Q122.644 88.3959 124.869 80.082Q126.956 72.337 127.028 64.5732Q127.105 56.2514 124.867 47.9082Q122.799 40.1492 118.974 33.3832Q115.121 26.5662 109.484 20.7573ZM17.8088 20.0544C10.0655 28.0426 4.8512 37.5787 2.16583 47.6543C-0.813354 58.7617 -0.62854 69.9785 2.16431 80.3457C5.04641 91.1105 10.5518 100.478 17.8081 107.952C18.0118 108.162 18.2168 108.37 18.4232 108.577L18.5103 108.664L62.466 64.709L63.173 64.002L62.4659 63.2949L19.2174 20.0488L18.5103 19.3418C18.2742 19.5779 18.0403 19.8155 17.8088 20.0544ZM18.5156 20.7612Q12.8788 26.5699 9.02518 33.3867Q5.20022 40.1528 3.13208 47.9121L3.13171 47.9121Q0.899969 56.2333 0.971213 64.5348Q1.03803 72.32 3.13031 80.0879Q5.35075 88.3809 9.54282 95.5153Q13.2558 101.834 18.5155 107.245L61.7589 64.002L18.5156 20.7612ZM108.656 109.495L108.661 109.49L107.954 108.783L64.7055 65.5371L63.9984 64.8301L63.2914 65.5371L19.3358 109.492L19.4252 109.582C19.6313 109.787 19.8388 109.991 20.0478 110.194C27.5213 117.449 36.8889 122.954 47.6543 125.836C58.0231 128.629 69.2395 128.812 80.3483 125.834C90.4231 123.149 99.9605 117.935 107.949 110.192C108.186 109.962 108.422 109.73 108.656 109.495ZM107.242 109.485L63.9985 66.2442L20.755 109.487Q26.151 114.732 32.4517 118.439Q39.6006 122.645 47.9143 124.871Q55.6666 126.959 63.4371 127.029Q71.7535 127.104 80.0908 124.867Q87.8481 122.8 94.613 118.977Q101.432 115.123 107.242 109.485Z" clip-rule="evenodd" fill="#DEDEDE" fill-opacity="1.000000" fill-rule="evenodd"/>
	<ellipse id="椭圆 66" cx="64.474915" cy="64.470703" rx="19.850904" ry="19.849871" fill="#FFFFFF" fill-opacity="1.000000"/>
	<ellipse id="椭圆 66" cx="64.474915" cy="64.470703" rx="19.350904" ry="19.349871" stroke="#DEDEDE" stroke-opacity="1.000000" stroke-width="1.000000"/>
	<path id="路径 7" d="M53.98 60.53L53.96 60.55C53.54 60.55 53.21 60.22 53.21 59.8C53.21 59.38 53.54 59.05 53.96 59.05L53.98 59.07L53.98 60.53ZM75.94 59.07L75.96 59.05C76.38 59.05 76.71 59.38 76.71 59.8C76.71 60.22 76.38 60.55 75.96 60.55L75.94 60.53L75.94 59.07Z" fill="#D9EAFF" fill-opacity="1.000000" fill-rule="nonzero"/>
	<path id="路径 7" d="M53.96 59.8L75.96 59.8" stroke="#D9EAFF" stroke-opacity="1.000000" stroke-width="1.500000" stroke-linejoin="round" stroke-linecap="round"/>
	<path id="形状结合" d="M72.2991 59.8008L57.6319 59.8008L57.6319 71.0273L63.0055 71.0273L64.8166 73.8008L66.6276 71.0273L72.2991 71.0273L72.2991 59.8008Z" clip-rule="evenodd" fill="#D9EAFF" fill-opacity="1.000000" fill-rule="evenodd"/>
</svg>
