<svg width="127.999237" height="128.003906" viewBox="0 0 127.999 128.004" fill="none" xmlns="http://www.w3.org/2000/svg" xmlns:xlink="http://www.w3.org/1999/xlink">
	<desc>
			Created with Pixso.
	</desc>
	<defs/>
	<mask id="mask_1076_20702" fill="white">
		<path id="合并" d="M80.3486 2.16602C90.7247 4.93164 100.531 10.3809 108.661 18.5117L63.9987 63.1738L19.3361 18.5098C26.9232 10.9062 36.5445 5.13867 47.6546 2.16406C58.0234 -0.628906 69.2399 -0.8125 80.3486 2.16602ZM109.489 19.3418C117.62 27.4727 123.068 37.2773 125.833 47.6543C128.813 58.7637 128.628 69.9805 125.835 80.3477C122.861 91.459 117.092 101.08 109.489 108.666L64.8262 64.0039L109.489 19.3418ZM2.16583 47.6562C4.93152 37.2793 10.3797 27.4746 18.5103 19.3438L63.173 64.0059L18.5103 108.668C10.907 101.082 5.13867 91.4609 2.16434 80.3496C-0.628571 69.9805 -0.813385 58.7656 2.16583 47.6562ZM108.662 109.494C100.531 117.623 90.7248 123.072 80.3487 125.838C69.2399 128.818 58.0234 128.633 47.6547 125.84C36.5445 122.865 26.9232 117.098 19.3362 109.494L63.9988 64.832L108.662 109.494Z" clip-rule="evenodd" fill="" fill-opacity="1.000000" fill-rule="evenodd"/>
	</mask>
	<path id="合并" d="M80.3486 2.16602C90.7247 4.93164 100.531 10.3809 108.661 18.5117L63.9987 63.1738L19.3361 18.5098C26.9232 10.9062 36.5445 5.13867 47.6546 2.16406C58.0234 -0.628906 69.2399 -0.8125 80.3486 2.16602ZM109.489 19.3418C117.62 27.4727 123.068 37.2773 125.833 47.6543C128.813 58.7637 128.628 69.9805 125.835 80.3477C122.861 91.459 117.092 101.08 109.489 108.666L64.8262 64.0039L109.489 19.3418ZM2.16583 47.6562C4.93152 37.2793 10.3797 27.4746 18.5103 19.3438L63.173 64.0059L18.5103 108.668C10.907 101.082 5.13867 91.4609 2.16434 80.3496C-0.628571 69.9805 -0.813385 58.7656 2.16583 47.6562ZM108.662 109.494C100.531 117.623 90.7248 123.072 80.3487 125.838C69.2399 128.818 58.0234 128.633 47.6547 125.84C36.5445 122.865 26.9232 117.098 19.3362 109.494L63.9988 64.832L108.662 109.494Z" clip-rule="evenodd" fill="#FFFFFF" fill-opacity="1.000000" fill-rule="evenodd" mask="url(#mask_1076_20702)"/>
	<path id="合并" d="M107.949 17.8101C99.9608 10.0666 90.4234 4.85133 80.3486 2.16602C69.2399 -0.8125 58.0234 -0.628906 47.6546 2.16406C36.8891 5.0464 27.5215 10.5511 20.048 17.8075C19.8435 18.0061 19.6404 18.206 19.4387 18.4071C19.4045 18.4413 19.3703 18.4755 19.3361 18.5098L63.2917 62.4668L63.9987 63.1738L64.7058 62.4668L107.954 19.2188L108.661 18.5117L108.654 18.5046C108.421 18.2709 108.185 18.0394 107.949 17.8101ZM107.242 18.517Q101.427 12.8739 94.603 9.0181Q87.8425 5.19848 80.0911 3.13281L80.0896 3.13281Q71.7642 0.899302 63.4588 0.971499Q55.6772 1.03914 47.9132 3.13086Q39.6132 5.35263 32.4739 9.54907Q26.1607 13.2599 20.7552 18.5148L63.9987 61.7597L107.242 18.517ZM109.489 19.3418L108.782 20.0489L65.5333 63.2968L64.8262 64.0039L65.5333 64.7109L109.489 108.666L109.588 108.567C109.79 108.364 109.991 108.16 110.191 107.954C117.447 100.482 122.953 91.1143 125.835 80.3477C128.628 69.9805 128.813 58.7637 125.833 47.6543C123.148 37.5787 117.934 28.0426 110.191 20.0544C109.959 19.8155 109.725 19.5779 109.489 19.3418ZM109.484 20.7612L66.2404 64.0039L109.485 107.248Q114.734 101.848 118.442 95.5423Q122.645 88.3968 124.869 80.0879Q126.958 72.3351 127.028 64.5642Q127.103 56.2486 124.867 47.9121Q122.799 40.1531 118.974 33.3871Q115.121 26.5701 109.484 20.7612ZM17.8088 20.0563C10.0655 28.0445 4.8512 37.5806 2.16583 47.6562C-0.813385 58.7656 -0.628571 69.9805 2.16434 80.3496C5.0464 91.1162 10.5518 100.484 17.808 107.956C18.008 108.162 18.2092 108.366 18.4118 108.569L18.5103 108.668L62.4659 64.7129L63.173 64.0059L62.4659 63.2988L19.2174 20.0508L18.5103 19.3438C18.2742 19.5799 18.0403 19.8174 17.8088 20.0563ZM18.5156 20.7632Q12.8788 26.5719 9.02523 33.3886Q5.20024 40.1548 3.13208 47.9141L3.13168 47.916Q0.899961 56.2372 0.971206 64.5387Q1.03802 72.3239 3.13031 80.0918Q5.35247 88.3923 9.54939 95.5319Q13.2601 101.844 18.5146 107.25L61.7589 64.0059L18.5156 20.7632ZM107.953 108.786L108.662 109.494C108.425 109.73 108.188 109.964 107.949 110.196C99.9608 117.937 90.4234 123.153 80.3487 125.838C69.2399 128.818 58.0234 128.633 47.6547 125.84C36.8892 122.958 27.5215 117.453 20.0481 110.196C19.843 109.997 19.6394 109.797 19.4372 109.595L19.3362 109.494L63.2917 65.5391L63.9988 64.832L64.7059 65.5391L107.953 108.786ZM63.9988 66.2462L107.241 109.488Q101.428 115.13 94.605 118.985Q87.8438 122.805 80.0911 124.871Q71.7512 127.108 63.4322 127.033Q55.6643 126.962 47.9147 124.875Q39.6024 122.649 32.4544 118.444Q26.1518 114.736 20.7544 109.49L63.9988 66.2462Z" clip-rule="evenodd" fill="#DEDEDE" fill-opacity="1.000000" fill-rule="evenodd"/>
	<ellipse id="椭圆 66" cx="64.475311" cy="64.480469" rx="19.850904" ry="19.850826" fill="#FFFFFF" fill-opacity="1.000000"/>
	<ellipse id="椭圆 66" cx="64.475311" cy="64.480469" rx="19.350904" ry="19.350826" stroke="#DEDEDE" stroke-opacity="1.000000" stroke-width="1.000000"/>
	<path id="路径 7" d="M53.98 60.54L53.96 60.56C53.54 60.56 53.21 60.23 53.21 59.81C53.21 59.39 53.54 59.06 53.96 59.06L53.98 59.08L53.98 60.54ZM75.94 59.08L75.96 59.06C76.38 59.06 76.71 59.39 76.71 59.81C76.71 60.23 76.38 60.56 75.96 60.56L75.94 60.54L75.94 59.08Z" fill="#D9EAFF" fill-opacity="1.000000" fill-rule="nonzero"/>
	<path id="路径 7" d="M53.96 59.81L75.96 59.81" stroke="#D9EAFF" stroke-opacity="1.000000" stroke-width="1.500000" stroke-linejoin="round" stroke-linecap="round"/>
	<path id="形状结合" d="M72.2996 59.8105L57.6324 59.8105L57.6324 71.0371L63.006 71.0371L64.8171 73.8105L66.6281 71.0371L72.2996 71.0371L72.2996 59.8105Z" clip-rule="evenodd" fill="#95C5FF" fill-opacity="1.000000" fill-rule="evenodd"/>
</svg>
