<?xml version="1.0" encoding="UTF-8"?>
<svg width="24px" height="23px" viewBox="0 0 24 23" version="1.1" xmlns="http://www.w3.org/2000/svg" xmlns:xlink="http://www.w3.org/1999/xlink">
    <title>logo</title>
    <g id="logo" stroke="none" fill="none" fill-rule="evenodd" stroke-width="1">
        <g id="编组" transform="translate(-0.0012, 0)" fill="#01A299">
            <path d="M11.743447,0 C14.3498667,0.00095473251 16.8808626,0.864987654 18.9411754,2.45557202 C20.9991218,4.04321559 22.4703052,6.27047985 23.1229038,8.78640329 C23.7738907,11.3002746 23.5679431,13.9594512 22.5376527,16.3431111 C21.5052401,18.7300463 19.7087993,20.7061647 17.4307885,21.9607572 C17.5940478,18.6459259 17.5549038,14.6990617 15.6397103,13.3633909 C15.6285551,13.312601 15.6231111,13.2607235 15.6234799,13.2087243 C16.7557239,12.4653203 17.4395256,11.2034963 17.4441548,9.84902058 L17.4441548,9.57119342 C17.4426702,8.51406886 17.0240982,7.50023276 16.2793811,6.74995885 C16.8157212,6.09040273 17.1236003,5.27464032 17.1567803,4.42518519 C16.8207145,4.75265844 16.4598256,5.05530864 16.0788873,5.3302716 C15.5686381,5.69800299 15.0179967,6.00615712 14.4377021,6.24872428 C11.7167145,7.36671605 8.69212187,6.77382716 6.29478854,4.42518519 C6.32908049,5.29903138 6.65359942,6.13653208 7.21706014,6.80533333 C6.50498518,7.55023809 6.10702561,8.54069246 6.1057515,9.57119342 L6.1057515,9.84902058 C6.1073759,11.2231597 6.81055317,12.5013365 7.97034409,13.238321 C7.97034409,13.3041975 7.96557043,13.3719835 7.95506837,13.441679 L7.93597372,13.4655473 C5.79546343,15.0905021 5.91385026,19.8202469 8.32168565,22.9135802 C5.63182211,22.095437 3.32437194,20.3401218 1.81804779,17.9661564 C-1.29161256,13.0658856 -0.330185158,6.62546078 4.07503545,2.84701235 C6.20945285,1.01255424 8.92998041,0.00264347289 11.7444017,0 L11.743447,0 Z" id="路径"></path>
        </g>
    </g>
</svg>