<?xml version="1.0" encoding="UTF-8"?>
<svg width="16px" height="16px" viewBox="0 0 16 16" version="1.1" xmlns="http://www.w3.org/2000/svg" xmlns:xlink="http://www.w3.org/1999/xlink">
    <title>Vector</title>
    <g id="切片软件增加互联生态相关内容" stroke="none" stroke-width="1" fill="none" fill-rule="evenodd">
        <g id="0.推荐初始化_Step2" transform="translate(-964, -423)" fill="#FFFFFF">
            <g id="编组" transform="translate(680, 411)">
                <path d="M292,12 C287.581714,12 284,15.5817143 284,20 C284,24.4182857 287.581714,28 292,28 C296.418286,28 300,24.4182857 300,20 C300,15.5817143 296.418286,12 292,12 Z M296.826615,18.0061643 L291.985448,22.8273778 C291.754327,23.0575407 291.379588,23.0575407 291.148478,22.8273778 L288.173332,19.8644276 C287.942223,19.634253 287.942223,19.2610484 288.173332,19.0308739 C288.404442,18.8007109 288.779192,18.8007109 289.010302,19.0308739 L291.567039,21.5771401 L295.989681,17.1726222 C296.22079,16.9424593 296.595553,16.9424593 296.826615,17.1726222 C297.057795,17.4027852 297.057795,17.7760014 296.826615,18.0061643 Z" id="Vector" fill-rule="nonzero"></path>
            </g>
        </g>
    </g>
</svg>