<svg xmlns="http://www.w3.org/2000/svg" xmlns:xlink="http://www.w3.org/1999/xlink" width="480" height="480" viewBox="0 0 480 480" fill="none"><path d="M311 205.275C311 207.25 311.001 209.225 310.988 211.2C310.979 212.864 310.96 214.527 310.915 216.19C310.816 219.814 310.603 223.47 309.959 227.053C309.305 230.689 308.239 234.073 306.557 237.376C304.905 240.622 302.745 243.593 300.169 246.169C297.593 248.745 294.622 250.905 291.376 252.557C288.073 254.239 284.689 255.305 281.053 255.959C277.47 256.603 273.814 256.816 270.19 256.915C268.527 256.96 266.864 256.979 265.2 256.988C263.225 257.001 261.25 257 259.275 257L220.725 257C218.75 257 216.775 257.001 214.8 256.988C213.136 256.979 211.473 256.96 209.81 256.915C206.186 256.816 202.53 256.603 198.947 255.959C195.311 255.305 191.927 254.239 188.624 252.557C185.378 250.905 182.407 248.745 179.831 246.169C177.255 243.593 175.095 240.622 173.443 237.376C171.761 234.073 170.695 230.689 170.041 227.053C169.397 223.47 169.184 219.814 169.086 216.19C169.04 214.527 169.021 212.864 169.012 211.2C168.999 209.225 169 207.25 169 205.275L169 166.725C169 164.75 168.999 162.775 169.012 160.8C169.021 159.136 169.04 157.473 169.086 155.81C169.184 152.186 169.397 148.53 170.041 144.947C170.695 141.311 171.761 137.927 173.443 134.624C175.095 131.378 177.255 128.407 179.831 125.831C182.407 123.255 185.378 121.095 188.624 119.443C191.927 117.761 195.311 116.695 198.947 116.041C202.53 115.397 206.186 115.184 209.81 115.085C211.473 115.04 213.136 115.021 214.8 115.012C216.775 114.999 218.75 115 220.725 115L259.275 115C261.25 115 263.225 114.999 265.2 115.012C266.864 115.021 268.527 115.04 270.19 115.085C273.814 115.184 277.47 115.397 281.053 116.041C284.689 116.695 288.073 117.761 291.376 119.443C294.622 121.095 297.593 123.255 300.169 125.831C302.745 128.407 304.905 131.378 306.557 134.624C308.239 137.927 309.305 141.311 309.959 144.947C310.603 148.53 310.816 152.186 310.915 155.81C310.96 157.473 310.979 159.136 310.988 160.8C311.001 162.775 311 164.75 311 166.725L311 205.275Z"   fill="#FFFFFF" ></path><path d="M240 132.75L186.75 186L240 239.25L293.25 186L240 132.75Z"   fill="#000000" ></path><path d="M240 212.625L240 235.922L289.922 186L240 136.078L240 159.375L226.688 172.688L226.688 199.312L253.312 172.688L253.312 199.312L240 212.625Z"   fill="#00AFE9" ></path></svg>