<?xml version="1.0" encoding="UTF-8"?>
<svg width="20px" height="20px" viewBox="0 0 20 20" version="1.1" xmlns="http://www.w3.org/2000/svg" xmlns:xlink="http://www.w3.org/1999/xlink">
    <title>Base/home</title>
    <g id="Base/home" stroke="none" fill="none" fill-rule="nonzero">
        <path d="M10.3922146,2.13484972 C10.3922146,2.13484972 12.2462385,3.58849225 14.2093227,5.12764316 L14.9471833,5.70616082 C16.9102675,7.24531174 18.7642915,8.69895426 18.7642915,8.69895426 C19.0351279,8.91126975 19.0789981,9.29851904 18.8624113,9.56391398 C18.6457431,9.82930893 18.2506641,9.87233636 17.9798276,9.66002088 C17.9798276,9.66002088 16.9069461,8.81884687 16.9069461,8.81884687 L16.9069461,17.3846154 C16.9069461,17.7244717 16.6258116,18 16.2790403,18 L13,18 L13,16.769 L15.6511346,16.7692308 L15.6511346,7.83423204 C15.6511346,7.83423204 9.99998266,3.40346263 9.99998266,3.40346263 C9.99998266,3.40346263 4.34885591,7.83423204 4.34885591,7.83423204 L4.34885591,16.7692308 L7,16.769 L7,18 L3.72095014,18 C3.37416189,18 3.09304437,17.7244717 3.09304437,17.3846154 L3.09304437,8.81884687 C3.09304437,8.81884687 2.0201794,9.66002088 2.0201794,9.66002088 C1.7493863,9.87233636 1.35425019,9.82930893 1.13761686,9.56391398 C0.920983416,9.29851904 0.964887425,8.91126975 1.23567899,8.69895426 C1.23567899,8.69895426 3.13411225,7.21049528 3.31491541,7.06873728 L3.32870166,7.05792823 C3.32870166,7.05792823 4.75252231,5.9415839 6.24414395,4.77208031 L6.69230845,4.42069764 C8.18393009,3.25119405 9.60775074,2.13484972 9.60775074,2.13484972 C9.83706195,1.95505009 10.1629034,1.95505009 10.3922146,2.13484972 Z" id="形状结合" fill="#000000" fill-rule="evenodd"></path>
        <path d="M11.875,12 C12.4963203,12 13,12.5848242 13,13.3062415 L13,17.6937585 C13,17.7994462 12.9891899,17.9022022 12.9687835,18.0006173 L11.875,18 L11.875,13.3062415 L8.125,13.3062415 L8.125,18 L7.0312165,18.0006173 C7.0108101,17.9022022 7,17.7994462 7,17.6937585 L7,13.3062415 C7,12.5848242 7.50367966,12 8.125,12 L11.875,12 Z" id="形状结合" fill="#000000"></path>
    </g>
</svg>