<?xml version="1.0" encoding="UTF-8"?>
<svg width="20px" height="20px" viewBox="0 0 20 20" version="1.1" xmlns="http://www.w3.org/2000/svg" xmlns:xlink="http://www.w3.org/1999/xlink">
    <title>准备-选中</title>
    <g id="切片端-风格更换" stroke="none" stroke-width="1" fill="none" fill-rule="evenodd">
        <g id="PC端切图" transform="translate(-509, -308)" fill="#FFFFFF" fill-rule="nonzero">
            <g id="准备-选中" transform="translate(509, 308)">
                <path d="M9.68758762,1.12540004 C9.88096257,1.01375554 10.1192039,1.01375554 10.3125789,1.12540004 C10.3125789,1.12540004 13.9210377,3.2087334 13.9210377,3.2087334 C13.9210377,3.2087334 17.5294536,5.29206673 17.5294536,5.29206673 C17.7228715,5.40371656 17.8419584,5.61004162 17.8419584,5.83333333 C17.8419584,5.83333333 17.8419584,14.1666667 17.8419584,14.1666667 C17.8419584,14.3899171 17.7228715,14.5962493 17.5294536,14.7079166 C17.5294536,14.7079166 10.3125789,18.8745832 10.3125789,18.8745832 C10.1192039,18.9862506 9.88096257,18.9862506 9.68758762,18.8745832 C9.68758762,18.8745832 6.07912918,16.7912499 6.07912918,16.7912499 C6.07912918,16.7912499 2.47070327,14.7079166 2.47070327,14.7079166 C2.27732829,14.5962493 2.15820412,14.3899171 2.15820412,14.1666667 C2.15820412,14.1666667 2.15820412,5.83333333 2.15820412,5.83333333 C2.15820412,5.61004162 2.27732829,5.40371656 2.47070327,5.29206673 C2.47070327,5.29206673 6.07912083,3.2087334 6.07912083,3.2087334 C6.07912083,3.2087334 9.68758762,1.12540004 9.68758762,1.12540004 C9.68758762,1.12540004 9.68758762,1.12540004 9.68758762,1.12540004 Z M10.0000876,2.38835007 C10.0000876,2.38835007 3.40820412,6.19417508 3.40820412,6.19417508 C3.40820412,6.19417508 3.40820412,13.8058337 3.40820412,13.8058337 C3.40820412,13.8058337 10.0000876,17.6116673 10.0000876,17.6116673 C10.0000876,17.6116673 16.5919536,13.8058337 16.5919536,13.8058337 C16.5919536,13.8058337 16.5919536,6.19417508 16.5919536,6.19417508 C16.5919536,6.19417508 10.0000876,2.38835007 10.0000876,2.38835007 C10.0000876,2.38835007 10.0000876,2.38835007 10.0000876,2.38835007 Z" id="Vector-(Stroke)" fill-rule="evenodd"></path>
                <path d="M10.000087,3.95833333 C10.3452619,3.95833333 10.625087,4.23815501 10.625087,4.58333333 C10.625087,4.58333333 10.625087,9.63915825 10.625087,9.63915825 C10.625087,9.63915825 14.6426864,11.9587334 14.6426864,11.9587334 C14.9416037,12.1313246 15.0441039,12.5135835 14.8714372,12.8125 C14.6988539,13.1114165 14.3166037,13.2138332 14.0176864,13.0412499 C14.0176864,13.0412499 10.000087,10.7216914 10.000087,10.7216914 C10.000087,10.7216914 5.98246187,13.0412499 5.98246187,13.0412499 C5.68352515,13.2138332 5.30128099,13.1114165 5.12869184,12.8125 C4.95610267,12.5135835 5.05852492,12.1313246 5.35745767,11.9587334 C5.35745767,11.9587334 9.37508702,9.63915825 9.37508702,9.63915825 C9.37508702,9.63915825 9.37508702,4.58333333 9.37508702,4.58333333 C9.37508702,4.23815501 9.65490341,3.95833333 10.000087,3.95833333 C10.000087,3.95833333 10.000087,3.95833333 10.000087,3.95833333 Z" id="Vector-(Stroke)"></path>
            </g>
        </g>
    </g>
</svg>