<?xml version="1.0" encoding="UTF-8"?>
<svg width="20px" height="20px" viewBox="0 0 20 20" version="1.1" xmlns="http://www.w3.org/2000/svg" xmlns:xlink="http://www.w3.org/1999/xlink">
    <title>设备-选中</title>
    <g id="设备-选中" stroke="none" fill="none">
        <rect id="矩形-3" x="0" y="0" width="20" height="20"></rect>
        <g id="编组" stroke-width="1" fill-rule="evenodd" transform="translate(2, 0.9996)" fill="#FFFFFF">
            <g fill-rule="nonzero" id="形状">
                <path d="M2.55093,10.6977 C2.8823099,10.6977 3.1509299,10.4291 3.1509299,10.09773 C3.1509299,9.7663498 2.8823099,9.4977303 2.55093,9.4977303 C2.55093,9.4977303 2.55093,10.6977 2.55093,10.6977 C2.55093,10.6977 2.55093,10.6977 2.55093,10.6977 Z M5.2822399,9.4977303 C4.95087,9.4977303 4.68224,9.7663498 4.68224,10.09773 C4.68224,10.4291 4.95087,10.6977 5.2822399,10.6977 C5.2822399,10.6977 5.2822399,9.4977303 5.2822399,9.4977303 C5.2822399,9.4977303 5.2822399,9.4977303 5.2822399,9.4977303 Z M2.3095,1.2 C2.3095,1.2 8.1217699,1.2 8.1217699,1.2 C8.1217699,1.2 8.1217699,0 8.1217699,0 C8.1217699,0 2.3095,0 2.3095,0 C2.3095,0 2.3095,1.2 2.3095,1.2 C2.3095,1.2 2.3095,1.2 2.3095,1.2 Z M9.2312698,2.3095 C9.2312698,2.3095 9.2312698,8.3882303 9.2312698,8.3882303 C9.2312698,8.3882303 10.43127,8.3882303 10.43127,8.3882303 C10.43127,8.3882303 10.43127,2.3095 10.43127,2.3095 C10.43127,2.3095 9.2312698,2.3095 9.2312698,2.3095 C9.2312698,2.3095 9.2312698,2.3095 9.2312698,2.3095 Z M1.2,8.3882303 C1.2,8.3882303 1.2,2.3095 1.2,2.3095 C1.2,2.3095 0,2.3095 0,2.3095 C0,2.3095 0,8.3882303 0,8.3882303 C0,8.3882303 1.2,8.3882303 1.2,8.3882303 C1.2,8.3882303 1.2,8.3882303 1.2,8.3882303 Z M2.3095,10.6977 C2.3095,10.6977 2.55093,10.6977 2.55093,10.6977 C2.55093,10.6977 2.55093,9.4977303 2.55093,9.4977303 C2.55093,9.4977303 2.3095,9.4977303 2.3095,9.4977303 C2.3095,9.4977303 2.3095,10.6977 2.3095,10.6977 C2.3095,10.6977 2.3095,10.6977 2.3095,10.6977 Z M8.1217804,9.4977303 C8.1217804,9.4977303 5.2822399,9.4977303 5.2822399,9.4977303 C5.2822399,9.4977303 5.2822399,10.6977 5.2822399,10.6977 C5.2822399,10.6977 8.1217804,10.6977 8.1217804,10.6977 C8.1217804,10.6977 8.1217804,9.4977303 8.1217804,9.4977303 C8.1217804,9.4977303 8.1217804,9.4977303 8.1217804,9.4977303 Z M0,8.3882303 C0,9.6637297 1.0339971,10.6977 2.3095,10.6977 C2.3095,10.6977 2.3095,9.4977303 2.3095,9.4977303 C1.69674,9.4977303 1.2,9.0009899 1.2,8.3882303 C1.2,8.3882303 0,8.3882303 0,8.3882303 C0,8.3882303 0,8.3882303 0,8.3882303 Z M9.2312698,8.3882303 C9.2312698,9.0009899 8.7345304,9.4977303 8.1217804,9.4977303 C8.1217804,9.4977303 8.1217804,10.6977 8.1217804,10.6977 C9.3972797,10.6977 10.43127,9.6637201 10.43127,8.3882303 C10.43127,8.3882303 9.2312698,8.3882303 9.2312698,8.3882303 C9.2312698,8.3882303 9.2312698,8.3882303 9.2312698,8.3882303 Z M8.1217699,1.2 C8.7345304,1.2 9.2312698,1.69674 9.2312698,2.3095 C9.2312698,2.3095 10.43127,2.3095 10.43127,2.3095 C10.43127,1.033996 9.3972702,0 8.1217699,0 C8.1217699,0 8.1217699,1.2 8.1217699,1.2 C8.1217699,1.2 8.1217699,1.2 8.1217699,1.2 Z M2.3095,0 C1.033996,0 0,1.034001 0,2.3095 C0,2.3095 1.2,2.3095 1.2,2.3095 C1.2,1.69674 1.69674,1.2 2.3095,1.2 C2.3095,1.2 2.3095,0 2.3095,0 C2.3095,0 2.3095,0 2.3095,0 Z"></path>
                <g transform="translate(9.4466, 10.6005) rotate(-180) translate(-9.4466, -10.6005)translate(3.0771, 6.1542)">
                    <path d="M2.3095,8.2927303 C2.3095,8.2927303 2.3095,7.6927299 2.3095,7.6927299 C2.3095,7.6927299 2.3095,7.6927299 2.3095,7.6927299 C2.3095,7.6927299 2.3095,8.2927303 2.3095,8.2927303 C2.3095,8.2927303 2.3095,8.2927303 2.3095,8.2927303 Z M4.6472902,8.8927298 C4.9786601,8.8927298 5.2472901,8.6240997 5.2472901,8.2927303 C5.2472901,7.96136 4.9786601,7.6927299 4.6472902,7.6927299 C4.6472902,7.6927299 4.6472902,8.8927298 4.6472902,8.8927298 C4.6472902,8.8927298 4.6472902,8.8927298 4.6472902,8.8927298 Z M8.0179901,7.6927299 C7.6866202,7.6927299 7.4179902,7.96136 7.4179902,8.2927303 C7.4179902,8.6240997 7.6866202,8.8927298 8.0179901,8.8927298 C8.0179901,8.8927298 8.0179901,7.6927299 8.0179901,7.6927299 C8.0179901,7.6927299 8.0179901,7.6927299 8.0179901,7.6927299 Z M2.3095,1.2 C2.3095,1.2 10.42959,1.2 10.42959,1.2 C10.42959,1.2 10.42959,0 10.42959,0 C10.42959,0 2.3095,0 2.3095,0 C2.3095,0 2.3095,1.2 2.3095,1.2 C2.3095,1.2 2.3095,1.2 2.3095,1.2 Z M11.5391,2.3095 C11.5391,2.3095 11.5391,6.58323 11.5391,6.58323 C11.5391,6.58323 12.7391,6.58323 12.7391,6.58323 C12.7391,6.58323 12.7391,2.3095 12.7391,2.3095 C12.7391,2.3095 11.5391,2.3095 11.5391,2.3095 C11.5391,2.3095 11.5391,2.3095 11.5391,2.3095 Z M1.2,6.58323 C1.2,6.58323 1.2,2.3095 1.2,2.3095 C1.2,2.3095 0,2.3095 0,2.3095 C0,2.3095 0,6.58323 0,6.58323 C0,6.58323 1.2,6.58323 1.2,6.58323 C1.2,6.58323 1.2,6.58323 1.2,6.58323 Z M2.3095,8.8927298 C2.3095,8.8927298 4.6472902,8.8927298 4.6472902,8.8927298 C4.6472902,8.8927298 4.6472902,7.6927299 4.6472902,7.6927299 C4.6472902,7.6927299 2.3095,7.6927299 2.3095,7.6927299 C2.3095,7.6927299 2.3095,8.8927298 2.3095,8.8927298 C2.3095,8.8927298 2.3095,8.8927298 2.3095,8.8927298 Z M10.42959,7.6927299 C10.42959,7.6927299 8.0179901,7.6927299 8.0179901,7.6927299 C8.0179901,7.6927299 8.0179901,8.8927298 8.0179901,8.8927298 C8.0179901,8.8927298 10.42959,8.8927298 10.42959,8.8927298 C10.42959,8.8927298 10.42959,7.6927299 10.42959,7.6927299 C10.42959,7.6927299 10.42959,7.6927299 10.42959,7.6927299 Z M0,6.58323 C0,7.8587298 1.0339971,8.8927298 2.3095,8.8927298 C2.3095,8.8927298 2.3095,7.6927299 2.3095,7.6927299 C1.69674,7.6927299 1.2,7.1959901 1.2,6.58323 C1.2,6.58323 0,6.58323 0,6.58323 C0,6.58323 0,6.58323 0,6.58323 Z M11.5391,6.58323 C11.5391,7.1959901 11.0424,7.6927299 10.42959,7.6927299 C10.42959,7.6927299 10.42959,8.8927298 10.42959,8.8927298 C11.7051,8.8927298 12.7391,7.8587298 12.7391,6.58323 C12.7391,6.58323 11.5391,6.58323 11.5391,6.58323 C11.5391,6.58323 11.5391,6.58323 11.5391,6.58323 Z M10.42959,1.2 C11.0424,1.2 11.5391,1.69674 11.5391,2.3095 C11.5391,2.3095 12.7391,2.3095 12.7391,2.3095 C12.7391,1.0339971 11.7051,0 10.42959,0 C10.42959,0 10.42959,1.2 10.42959,1.2 C10.42959,1.2 10.42959,1.2 10.42959,1.2 Z M2.3095,0 C1.033998,0 0,1.033996 0,2.3095 C0,2.3095 1.2,2.3095 1.2,2.3095 C1.2,1.69674 1.69674,1.2 2.3095,1.2 C2.3095,1.2 2.3095,0 2.3095,0 C2.3095,0 2.3095,0 2.3095,0 Z"></path>
                </g>
                <path d="M10.4389256,14.4469092 C10.4389256,14.1155382 10.1702965,13.8469092 9.8389256,13.8469092 C9.50755459,13.8469092 9.23892558,14.1155382 9.23892558,14.4469092 C9.23892558,14.4469092 10.4389256,14.4469092 10.4389256,14.4469092 C10.4389256,14.4469092 10.4389256,14.4469092 10.4389256,14.4469092 Z M9.23892558,16.3464493 C9.23892558,16.6778292 9.50755459,16.9464592 9.8389256,16.9464592 C10.1702965,16.9464592 10.4389256,16.6778292 10.4389256,16.3464493 C10.4389256,16.3464493 9.23892558,16.3464493 9.23892558,16.3464493 C9.23892558,16.3464493 9.23892558,16.3464493 9.23892558,16.3464493 Z M9.23892558,14.4469092 C9.23892558,14.4469092 9.23892558,16.3464493 9.23892558,16.3464493 C9.23892558,16.3464493 10.4389256,16.3464493 10.4389256,16.3464493 C10.4389256,16.3464493 10.4389256,14.4469092 10.4389256,14.4469092 C10.4389256,14.4469092 9.23892558,14.4469092 9.23892558,14.4469092 C9.23892558,14.4469092 9.23892558,14.4469092 9.23892558,14.4469092 Z"></path>
                <path d="M6.7541821,15.746451 C6.42281109,15.746451 6.15418208,16.01508 6.15418208,16.346451 C6.15418208,16.677822 6.42281109,16.946451 6.7541821,16.946451 C6.7541821,16.946451 6.7541821,15.746451 6.7541821,15.746451 C6.7541821,15.746451 6.7541821,15.746451 6.7541821,15.746451 Z M12.9236423,16.946451 C13.2550122,16.946451 13.5236422,16.677822 13.5236422,16.346451 C13.5236422,16.01508 13.2550122,15.746451 12.9236423,15.746451 C12.9236423,15.746451 12.9236423,16.946451 12.9236423,16.946451 C12.9236423,16.946451 12.9236423,16.946451 12.9236423,16.946451 Z M6.7541821,16.946451 C6.7541821,16.946451 12.9236423,16.946451 12.9236423,16.946451 C12.9236423,16.946451 12.9236423,15.746451 12.9236423,15.746451 C12.9236423,15.746451 6.7541821,15.746451 6.7541821,15.746451 C6.7541821,15.746451 6.7541821,16.946451 6.7541821,16.946451 C6.7541821,16.946451 6.7541821,16.946451 6.7541821,16.946451 Z"></path>
                <path d="M3.83897066,1.16895753 C3.50759965,1.16895753 3.23897064,1.43758654 3.23897064,1.76895755 C3.23897064,2.1003285 3.50759965,2.36895753 3.83897066,2.36895753 C3.83897066,2.36895753 3.83897066,1.16895753 3.83897066,1.16895753 C3.83897066,1.16895753 3.83897066,1.16895753 3.83897066,1.16895753 Z M6.53811064,2.36895753 C6.86948074,2.36895753 7.13811054,2.1003285 7.13811054,1.76895755 C7.13811054,1.43758654 6.86948074,1.16895753 6.53811064,1.16895753 C6.53811064,1.16895753 6.53811064,2.36895753 6.53811064,2.36895753 C6.53811064,2.36895753 6.53811064,2.36895753 6.53811064,2.36895753 Z M3.83897066,2.36895753 C3.83897066,2.36895753 6.53811064,2.36895753 6.53811064,2.36895753 C6.53811064,2.36895753 6.53811064,1.16895753 6.53811064,1.16895753 C6.53811064,1.16895753 3.83897066,1.16895753 3.83897066,1.16895753 C3.83897066,1.16895753 3.83897066,2.36895753 3.83897066,2.36895753 C3.83897066,2.36895753 3.83897066,2.36895753 3.83897066,2.36895753 Z"></path>
            </g>
            <path d="M1.2,13.8173916 C1.2,13.4860206 0.93137097,13.2173916 0.60000002,13.2173916 C0.26862901,13.2173916 0,13.4860206 0,13.8173916 C0,13.8173916 1.2,13.8173916 1.2,13.8173916 C1.2,13.8173916 1.2,13.8173916 1.2,13.8173916 Z M0.60000002,16.6000017 C0.60000002,16.6000017 7.60225216e-14,16.6000017 7.60225216e-14,16.6000017 C7.60225216e-14,16.6000017 7.60225216e-14,17.2000016 7.60225216e-14,17.2000016 C7.60225216e-14,17.2000016 0.60000002,17.2000016 0.60000002,17.2000016 C0.60000002,17.2000016 0.60000002,16.6000017 0.60000002,16.6000017 C0.60000002,16.6000017 0.60000002,16.6000017 0.60000002,16.6000017 Z M3.5372,17.2000016 C3.8685701,17.2000016 4.1371999,16.9313716 4.1371999,16.6000017 C4.1371999,16.2686316 3.8685701,16.0000015 3.5372,16.0000015 C3.5372,16.0000015 3.5372,17.2000016 3.5372,17.2000016 C3.5372,17.2000016 3.5372,17.2000016 3.5372,17.2000016 Z M0,13.8173916 C0,13.8173916 0,16.6000017 0,16.6000017 C0,16.6000017 1.2,16.6000017 1.2,16.6000017 C1.2,16.6000017 1.2,13.8173916 1.2,13.8173916 C1.2,13.8173916 0,13.8173916 0,13.8173916 C0,13.8173916 0,13.8173916 0,13.8173916 Z M0.60000002,17.2000016 C0.60000002,17.2000016 3.5372,17.2000016 3.5372,17.2000016 C3.5372,17.2000016 3.5372,16.0000015 3.5372,16.0000015 C3.5372,16.0000015 0.60000002,16.0000015 0.60000002,16.0000015 C0.60000002,16.0000015 0.60000002,17.2000016 0.60000002,17.2000016 C0.60000002,17.2000016 0.60000002,17.2000016 0.60000002,17.2000016 Z" id="形状" fill-rule="nonzero"></path>
            <g transform="translate(13.4367, 1.9913) rotate(-180) translate(-13.4367, -1.9913)translate(11.3681, 0)" fill-rule="nonzero" id="形状">
                <path d="M1.2,0.60000002 C1.2,0.26862901 0.93137097,7.60225216e-14 0.60000002,7.60225216e-14 C0.26862901,7.60225216e-14 0,0.26862901 0,0.60000002 C0,0.60000002 1.2,0.60000002 1.2,0.60000002 C1.2,0.60000002 1.2,0.60000002 1.2,0.60000002 Z M0.60000002,3.3826101 C0.60000002,3.3826101 7.60225216e-14,3.3826101 7.60225216e-14,3.3826101 C7.60225216e-14,3.3826101 7.60225216e-14,3.98261 7.60225216e-14,3.98261 C7.60225216e-14,3.98261 0.60000002,3.98261 0.60000002,3.98261 C0.60000002,3.98261 0.60000002,3.3826101 0.60000002,3.3826101 C0.60000002,3.3826101 0.60000002,3.3826101 0.60000002,3.3826101 Z M3.5372,3.98261 C3.8685701,3.98261 4.1371999,3.71398 4.1371999,3.3826101 C4.1371999,3.05124 3.8685701,2.7826099 3.5372,2.7826099 C3.5372,2.7826099 3.5372,3.98261 3.5372,3.98261 C3.5372,3.98261 3.5372,3.98261 3.5372,3.98261 Z M0,0.60000002 C0,0.60000002 0,3.3826101 0,3.3826101 C0,3.3826101 1.2,3.3826101 1.2,3.3826101 C1.2,3.3826101 1.2,0.60000002 1.2,0.60000002 C1.2,0.60000002 0,0.60000002 0,0.60000002 C0,0.60000002 0,0.60000002 0,0.60000002 Z M0.60000002,3.98261 C0.60000002,3.98261 3.5372,3.98261 3.5372,3.98261 C3.5372,3.98261 3.5372,2.7826099 3.5372,2.7826099 C3.5372,2.7826099 0.60000002,2.7826099 0.60000002,2.7826099 C0.60000002,2.7826099 0.60000002,3.98261 0.60000002,3.98261 C0.60000002,3.98261 0.60000002,3.98261 0.60000002,3.98261 Z"></path>
            </g>
        </g>
    </g>
</svg>