<?xml version="1.0" encoding="UTF-8"?>
<svg width="20px" height="20px" viewBox="0 0 20 20" version="1.1" xmlns="http://www.w3.org/2000/svg" xmlns:xlink="http://www.w3.org/1999/xlink">
    <title>预览-未选中</title>
    <g id="切片端-风格更换" stroke="none" stroke-width="1" fill="none" fill-rule="evenodd">
        <g id="PC端切图" transform="translate(-643, -308)" fill="#000000">
            <g id="预览" transform="translate(599, 296)">
                <g id="预览-未选中" fill-rule="nonzero" transform="translate(44, 12)">
                    <path d="M9.79574998,1.49263702 C9.92808342,1.44689877 10.0719166,1.44689877 10.20425,1.49263702 C10.20425,1.49263702 18.5375834,4.37359174 18.5375834,4.37359174 C18.7885841,4.46037511 18.9573336,4.69631672 18.9583381,4.96190826 C18.9593331,5.22749186 18.7924163,5.46471675 18.5420831,5.55340846 C18.5420831,5.55340846 10.2087498,8.50578308 10.2087498,8.50578308 C10.0736666,8.55362495 9.92633343,8.55362495 9.79125023,8.50578308 C9.79125023,8.50578308 1.45795,5.55340846 1.45795,5.55340846 C1.20760667,5.46471675 1.04065738,5.22749186 1.04166667,4.96190826 C1.04268508,4.69631672 1.21144,4.46037511 1.46245415,4.37359174 C1.46245415,4.37359174 9.79574998,1.49263702 9.79574998,1.49263702 C9.79574998,1.49263702 9.79574998,1.49263702 9.79574998,1.49263702 Z M3.55860829,4.97151653 C3.55860829,4.97151653 10,7.25359996 10,7.25359996 C10,7.25359996 16.4414167,4.97151653 16.4414167,4.97151653 C16.4414167,4.97151653 10,2.74462501 10,2.74462501 C10,2.74462501 3.55860829,4.97151653 3.55860829,4.97151653 C3.55860829,4.97151653 3.55860829,4.97151653 3.55860829,4.97151653 Z" id="Vector-(Stroke)" fill-rule="evenodd"></path>
                    <path d="M1.07675519,8.12686488 C1.1907847,7.80106572 1.54733638,7.62939239 1.87313552,7.74342206 C1.87313552,7.74342206 9.99999662,10.5878216 9.99999662,10.5878216 C9.99999662,10.5878216 18.1268293,7.74342206 18.1268293,7.74342206 C18.4526632,7.62939239 18.8092468,7.80106572 18.9232459,8.12686488 C19.0372465,8.45266407 18.8655804,8.80921324 18.5398291,8.92324656 C18.5398291,8.92324656 10.2064965,11.8399131 10.2064965,11.8399131 C10.0728295,11.8866964 9.92716293,11.8866964 9.79349673,11.8399131 C9.79349673,11.8399131 1.46019801,8.92324656 1.46019801,8.92324656 C1.13439886,8.80921324 0.962725524,8.45266407 1.07675519,8.12686488 C1.07675519,8.12686488 1.07675519,8.12686488 1.07675519,8.12686488 Z" id="Vector-(Stroke)"></path>
                    <path d="M1.07675519,11.4601569 C1.1907847,11.1343577 1.54733638,10.9626844 1.87313552,11.0767141 C1.87313552,11.0767141 9.99999662,13.9211136 9.99999662,13.9211136 C9.99999662,13.9211136 18.1268293,11.0767141 18.1268293,11.0767141 C18.4526632,10.9626844 18.8092468,11.1343577 18.9232459,11.4601569 C19.0372465,11.7859561 18.8655804,12.1425052 18.5398291,12.2565386 C18.5398291,12.2565386 10.2064965,15.1732051 10.2064965,15.1732051 C10.0728295,15.2199884 9.92716293,15.2199884 9.79349673,15.1732051 C9.79349673,15.1732051 1.46019801,12.2565386 1.46019801,12.2565386 C1.13439886,12.1425052 0.962725524,11.7859561 1.07675519,11.4601569 C1.07675519,11.4601569 1.07675519,11.4601569 1.07675519,11.4601569 Z" id="Vector-(Stroke)"></path>
                    <path d="M1.07675519,14.7935315 C1.1907847,14.4677324 1.54733638,14.2960591 1.87313552,14.4100887 C1.87313552,14.4100887 9.99999662,17.2544883 9.99999662,17.2544883 C9.99999662,17.2544883 18.1268293,14.4100887 18.1268293,14.4100887 C18.4526632,14.2960591 18.8092468,14.4677324 18.9232459,14.7935315 C19.0372465,15.1193307 18.8655804,15.4758799 18.5398291,15.5899132 C18.5398291,15.5899132 10.2064965,18.5065798 10.2064965,18.5065798 C10.0728295,18.5533631 9.92716293,18.5533631 9.79349673,18.5065798 C9.79349673,18.5065798 1.46019801,15.5899132 1.46019801,15.5899132 C1.13439886,15.4758799 0.962725524,15.1193307 1.07675519,14.7935315 C1.07675519,14.7935315 1.07675519,14.7935315 1.07675519,14.7935315 Z" id="Vector-(Stroke)"></path>
                </g>
            </g>
        </g>
    </g>
</svg>