<?xml version="1.0" encoding="UTF-8"?>
<svg width="18px" height="18px" viewBox="0 0 18 18" version="1.1" xmlns="http://www.w3.org/2000/svg" xmlns:xlink="http://www.w3.org/1999/xlink">
    <title>topbar_publish</title>
    <g id="topbar_publish" stroke="none" fill="none" fill-rule="evenodd" stroke-width="1">
        <g id="编组">
            <path d="M5.97222,3 L4,3 C2.89543,3 2,3.89543 2,5 L2,14 C2,15.1046 2.89543,16 4,16 L14.4444,16 C15.549,16 16.4444,15.1046 16.4444,14 L16.4444,5 C16.4444,3.89543 15.549,3 14.4444,3 L12.8333,3" id="路径" stroke="#1C1B1E" stroke-linecap="round"></path>
            <path d="M9.93711,2.64645 C9.74185,2.45118 9.42527,2.45118 9.23,2.64645 L6.04802,5.82843 C5.85276,6.02369 5.85276,6.34027 6.04802,6.53553 C6.24329,6.7308 6.55987,6.7308 6.75513,6.53553 L9.58356,3.70711 L12.412,6.53553 C12.6072,6.7308 12.9238,6.7308 13.1191,6.53553 C13.3144,6.34027 13.3144,6.02369 13.1191,5.82843 L9.93711,2.64645 Z M9.08356,11.3056 C9.08356,11.5817 9.30741,11.8056 9.58356,11.8056 C9.8597,11.8056 10.0836,11.5817 10.0836,11.3056 L9.08356,11.3056 Z M9.08356,3 L9.08356,11.3056 L10.0836,11.3056 L10.0836,3 L9.08356,3 Z" id="形状" fill="#333333" fill-rule="nonzero"></path>
        </g>
    </g>
</svg>