<svg width="20.000000" height="20.000000" viewBox="0 0 20 20" fill="none" xmlns="http://www.w3.org/2000/svg" xmlns:xlink="http://www.w3.org/1999/xlink">
	<desc>
			Created with Pixso.
	</desc>
	<defs/>
	<path id="Vector" d="M19.74 9.88L15.75 13.49C15.59 13.63 15.39 13.7 15.19 13.7C14.98 13.7 14.78 13.63 14.63 13.49C14.55 13.43 14.49 13.35 14.45 13.26C14.41 13.17 14.39 13.08 14.39 12.98C14.39 12.88 14.41 12.79 14.45 12.7C14.49 12.61 14.55 12.54 14.63 12.48L17.27 10.09L9.59 10.09C9.11 10.09 8.79 9.8 8.79 9.37C8.79 8.94 9.11 8.65 9.59 8.65L17.27 8.65L14.63 6.26C14.55 6.2 14.49 6.13 14.45 6.04C14.41 5.95 14.39 5.86 14.39 5.76C14.39 5.66 14.41 5.57 14.45 5.48C14.49 5.39 14.55 5.31 14.63 5.25C14.7 5.18 14.79 5.12 14.88 5.09C14.98 5.05 15.08 5.03 15.19 5.04C15.29 5.03 15.39 5.05 15.49 5.09C15.58 5.12 15.67 5.18 15.75 5.25L19.74 8.94C19.74 8.94 19.74 9.01 19.82 9.01C19.88 9.07 19.93 9.14 19.96 9.22C19.99 9.29 20 9.38 19.99 9.46C19.99 9.55 19.96 9.63 19.92 9.7C19.87 9.77 19.81 9.83 19.74 9.88L19.74 9.88Z" fill="#333333" fill-opacity="1.000000" fill-rule="evenodd"/>
	<path id="Vector" d="M0 2.3C0 1 1.05 0 2.44 0L16.28 0C17.67 0 18.72 1 18.72 2.3L18.72 3.84C18.72 4.3 18.4 4.61 17.91 4.61C17.42 4.61 17.1 4.3 17.1 3.84L17.1 2.3C17.1 1.84 16.77 1.53 16.28 1.53L2.44 1.53C1.95 1.53 1.62 1.84 1.62 2.3L1.62 17.69C1.62 18.15 1.95 18.46 2.44 18.46L16.28 18.46C16.77 18.46 17.1 18.15 17.1 17.69L17.1 16.15C17.1 15.69 17.42 15.38 17.91 15.38C18.4 15.38 18.72 15.69 18.72 16.15L18.72 17.69C18.72 18.99 17.67 20 16.28 20L2.44 20C1.05 20 0 19 0 17.69L0 2.3Z" fill="#333333" fill-opacity="1.000000" fill-rule="evenodd"/>
</svg>
