<svg width="21.555664" height="22.958984" viewBox="0 0 21.5557 22.959" fill="none" xmlns="http://www.w3.org/2000/svg" xmlns:xlink="http://www.w3.org/1999/xlink">
	<desc>
			Created with Pixso.
	</desc>
	<defs/>
	<path id="路径" d="M0.75 12.05C0.75 17.66 5.23 22.2 10.77 22.2C16.31 22.2 20.8 17.66 20.8 12.05C20.8 6.44 16.31 1.9 10.77 1.9C9.03 1.9 7.39 2.35 5.97 3.14" stroke="#FFFFFF" stroke-opacity="1.000000" stroke-width="1.500000" stroke-linejoin="round" stroke-linecap="round"/>
	<path id="0" d="M10.2 15.41Q10.6 15.53 11.08 15.53Q11.56 15.53 11.95 15.41Q12.07 15.36 12.18 15.3Q12.42 15.17 12.62 14.93Q12.89 14.59 13.04 14.01Q13.19 13.43 13.19 12.53Q13.19 11.63 13.04 11.05Q12.89 10.47 12.62 10.13Q12.43 9.91 12.19 9.77Q12.07 9.71 11.95 9.67Q11.56 9.54 11.08 9.54Q10.6 9.54 10.2 9.67Q10.07 9.71 9.96 9.77Q9.72 9.91 9.53 10.13Q9.25 10.47 9.1 11.05Q8.95 11.63 8.95 12.53Q8.95 13.43 9.1 14.01Q9.25 14.59 9.53 14.93Q9.72 15.17 9.97 15.3Q10.08 15.36 10.2 15.41ZM11.49 14.4Q11.32 14.48 11.08 14.48Q10.84 14.48 10.66 14.4Q10.49 14.32 10.38 14.1Q10.27 13.89 10.22 13.51Q10.17 13.13 10.17 12.54Q10.17 11.95 10.22 11.57Q10.27 11.19 10.38 10.97Q10.49 10.75 10.66 10.66Q10.84 10.58 11.08 10.58Q11.32 10.58 11.49 10.66Q11.67 10.75 11.78 10.97Q11.89 11.19 11.93 11.57Q11.99 11.95 11.99 12.54Q11.99 13.13 11.93 13.51Q11.89 13.89 11.78 14.1Q11.67 14.32 11.5 14.4L11.49 14.4Z" fill="#FFFFFF" fill-opacity="1.000000" fill-rule="evenodd"/>
	<path id="路径 2" d="M4.88 0.51L4.87 0.49C5.01 0.09 5.43 -0.1 5.82 0.04C6.22 0.19 6.42 0.61 6.27 1.01L6.25 1.02L5.58 0.77L7.64 5.24L7.88 4.58L7.91 4.56C8.3 4.71 8.5 5.13 8.36 5.53C8.21 5.92 7.79 6.12 7.4 5.97L7.39 5.95L7.63 5.26L4.38 4.06L5.56 0.77L4.88 0.51Z" fill="#D8D8D8" fill-opacity="0" fill-rule="evenodd"/>
	<path id="路径 2" d="M5.57 0.75L4.38 4.06L7.65 5.27" stroke="#FFFFFF" stroke-opacity="1.000000" stroke-width="1.500000" stroke-linejoin="round" stroke-linecap="round"/>
</svg>
