<svg viewBox="0 0 20 20" xmlns="http://www.w3.org/2000/svg" xmlns:xlink="http://www.w3.org/1999/xlink" width="20" height="20" fill="none" customFrame="#000000">
	<g id="组合 1063">
		<rect id="矩形 79" width="19" height="19" x="0.5" y="0.5" rx="2" stroke="rgb(255,254.745,254.745)" stroke-width="1" />
		<g id="组合 1062">
			<path id="矢量 258" d="M3 7L3 4C3 3.44772 3.44772 3 4 3L7 3" stroke="rgb(255,254.745,254.745)" stroke-width="1" />
			<path id="矢量 260" d="M0 4L-4.37114e-08 1C-4.37114e-08 0.447715 0.447715 0 1 0L4 0" stroke="rgb(255,254.745,254.745)" stroke-width="1" transform="matrix(1,0,0,-1,3,17)" />
			<path id="矢量 259" d="M0 4L-4.37114e-08 1C-4.37114e-08 0.447715 0.447715 0 1 0L4 0" stroke="rgb(255,254.745,254.745)" stroke-width="1" transform="matrix(-1,0,0,1,17,3)" />
			<path id="矢量 261" d="M0 4L-4.37114e-08 1C-4.37114e-08 0.447715 0.447715 0 1 0L4 0" stroke="rgb(255,254.745,254.745)" stroke-width="1" transform="matrix(-1,0,0,-1,17,17)" />
		</g>
	</g>
</svg>
